<svg width="167" height="107" viewBox="0 0 167 107" fill="none" xmlns="http://www.w3.org/2000/svg">
<path d="M7.296 62V17.2H11.2L42.112 56.112H40.064V17.2H44.736V62H40.832L9.984 23.088H12.032V62H7.296ZM89.1825 62.384C85.8118 62.384 82.6758 61.8293 79.7745 60.72C76.9158 59.568 74.4198 57.968 72.2865 55.92C70.1958 53.8293 68.5532 51.4187 67.3585 48.688C66.2065 45.9147 65.6305 42.8853 65.6305 39.6C65.6305 36.3147 66.2065 33.3067 67.3585 30.576C68.5532 27.8027 70.1958 25.392 72.2865 23.344C74.4198 21.2533 76.9158 19.6533 79.7745 18.544C82.6332 17.392 85.7692 16.816 89.1825 16.816C92.5532 16.816 95.6678 17.392 98.5265 18.544C101.385 19.6533 103.86 21.232 105.951 23.28C108.084 25.328 109.727 27.7387 110.879 30.512C112.073 33.2853 112.671 36.3147 112.671 39.6C112.671 42.8853 112.073 45.9147 110.879 48.688C109.727 51.4613 108.084 53.872 105.951 55.92C103.86 57.968 101.385 59.568 98.5265 60.72C95.6678 61.8293 92.5532 62.384 89.1825 62.384ZM89.1825 58.16C91.8705 58.16 94.3452 57.712 96.6065 56.816C98.9105 55.8773 100.894 54.576 102.558 52.912C104.265 51.2053 105.588 49.2427 106.527 47.024C107.465 44.7627 107.935 42.288 107.935 39.6C107.935 36.912 107.465 34.4587 106.527 32.24C105.588 29.9787 104.265 28.016 102.558 26.352C100.894 24.6453 98.9105 23.344 96.6065 22.448C94.3452 21.5093 91.8705 21.04 89.1825 21.04C86.4945 21.04 83.9985 21.5093 81.6945 22.448C79.3905 23.344 77.3852 24.6453 75.6785 26.352C74.0145 28.016 72.6918 29.9787 71.7105 32.24C70.7718 34.4587 70.3025 36.912 70.3025 39.6C70.3025 42.2453 70.7718 44.6987 71.7105 46.96C72.6918 49.2213 74.0145 51.2053 75.6785 52.912C77.3852 54.576 79.3905 55.8773 81.6945 56.816C83.9985 57.712 86.4945 58.16 89.1825 58.16ZM125.693 62L144.061 37.168V40.816L126.781 17.2H132.221L146.749 36.912L144.637 36.976L159.165 17.2H164.285L147.197 40.496V37.168L165.501 62H159.997L144.509 40.944H146.493L131.133 62H125.693Z" fill="#616161"/>
<circle cx="74.5" cy="27.5" r="27.5" fill="url(#paint0_radial_1_13)"/>
<path d="M22.784 101V86.552C22.784 85.512 23.08 84.68 23.672 84.056C24.28 83.416 25.144 83.096 26.264 83.096C26.728 83.096 27.184 83.168 27.632 83.312C28.08 83.44 28.448 83.64 28.736 83.912L28.256 84.824C28.016 84.584 27.728 84.408 27.392 84.296C27.056 84.184 26.696 84.128 26.312 84.128C25.544 84.128 24.96 84.344 24.56 84.776C24.16 85.192 23.96 85.816 23.96 86.648V88.76L23.984 89.336V101H22.784ZM20.48 89.504V88.472H27.968V89.504H20.48ZM30.416 101V88.472H31.616V101H30.416ZM31.016 85.424C30.744 85.424 30.512 85.328 30.32 85.136C30.128 84.944 30.032 84.72 30.032 84.464C30.032 84.192 30.128 83.96 30.32 83.768C30.512 83.576 30.744 83.48 31.016 83.48C31.304 83.48 31.536 83.576 31.712 83.768C31.904 83.944 32 84.168 32 84.44C32 84.712 31.904 84.944 31.712 85.136C31.536 85.328 31.304 85.424 31.016 85.424ZM36.6768 101V83.192H37.8768V101H36.6768ZM58.5346 88.376C59.5426 88.376 60.4146 88.576 61.1506 88.976C61.9026 89.36 62.4866 89.952 62.9026 90.752C63.3186 91.536 63.5266 92.512 63.5266 93.68V101H62.3266V93.776C62.3266 92.368 61.9826 91.296 61.2946 90.56C60.6066 89.824 59.6466 89.456 58.4146 89.456C57.4706 89.456 56.6546 89.656 55.9666 90.056C55.2786 90.456 54.7506 91.016 54.3826 91.736C54.0146 92.456 53.8306 93.32 53.8306 94.328V101H52.6306V93.776C52.6306 92.368 52.2866 91.296 51.5986 90.56C50.9106 89.824 49.9506 89.456 48.7186 89.456C47.7746 89.456 46.9586 89.656 46.2706 90.056C45.5826 90.456 45.0546 91.016 44.6866 91.736C44.3186 92.456 44.1346 93.32 44.1346 94.328V101H42.9346V88.472H44.0866V91.928L43.9186 91.544C44.2866 90.568 44.9026 89.8 45.7666 89.24C46.6306 88.664 47.6706 88.376 48.8866 88.376C50.1346 88.376 51.1826 88.696 52.0306 89.336C52.8946 89.96 53.4386 90.896 53.6626 92.144L53.2546 91.976C53.5906 90.904 54.2226 90.04 55.1506 89.384C56.0786 88.712 57.2066 88.376 58.5346 88.376ZM77.8136 101.096C76.7736 101.096 75.7976 100.944 74.8856 100.64C73.9896 100.336 73.2936 99.952 72.7976 99.488L73.3496 98.528C73.8296 98.944 74.4696 99.304 75.2696 99.608C76.0696 99.896 76.9336 100.04 77.8616 100.04C79.1736 100.04 80.1176 99.824 80.6936 99.392C81.2696 98.96 81.5576 98.392 81.5576 97.688C81.5576 97.176 81.4056 96.776 81.1016 96.488C80.8136 96.184 80.4216 95.952 79.9256 95.792C79.4296 95.632 78.8856 95.504 78.2936 95.408C77.7016 95.296 77.1096 95.176 76.5176 95.048C75.9256 94.92 75.3816 94.736 74.8856 94.496C74.3896 94.256 73.9896 93.928 73.6856 93.512C73.3976 93.08 73.2536 92.512 73.2536 91.808C73.2536 91.168 73.4296 90.592 73.7816 90.08C74.1336 89.568 74.6616 89.16 75.3656 88.856C76.0696 88.536 76.9496 88.376 78.0056 88.376C78.7896 88.376 79.5736 88.488 80.3576 88.712C81.1576 88.936 81.8056 89.232 82.3016 89.6L81.7496 90.56C81.2216 90.16 80.6296 89.872 79.9736 89.696C79.3176 89.52 78.6536 89.432 77.9816 89.432C76.7656 89.432 75.8696 89.656 75.2936 90.104C74.7336 90.552 74.4536 91.112 74.4536 91.784C74.4536 92.312 74.5976 92.736 74.8856 93.056C75.1896 93.36 75.5896 93.6 76.0856 93.776C76.5816 93.936 77.1256 94.072 77.7176 94.184C78.3096 94.28 78.9016 94.392 79.4936 94.52C80.0856 94.648 80.6296 94.832 81.1256 95.072C81.6216 95.296 82.0136 95.616 82.3016 96.032C82.6056 96.432 82.7576 96.976 82.7576 97.664C82.7576 98.352 82.5656 98.952 82.1816 99.464C81.8136 99.976 81.2616 100.376 80.5256 100.664C79.7896 100.952 78.8856 101.096 77.8136 101.096ZM89.7545 101.096C88.6505 101.096 87.8025 100.792 87.2105 100.184C86.6345 99.576 86.3465 98.744 86.3465 97.688V85.736H87.5465V97.568C87.5465 98.368 87.7465 98.984 88.1465 99.416C88.5465 99.848 89.1225 100.064 89.8745 100.064C90.6585 100.064 91.3065 99.832 91.8185 99.368L92.3225 100.208C92.0025 100.512 91.6105 100.736 91.1465 100.88C90.6985 101.024 90.2345 101.096 89.7545 101.096ZM84.0425 89.504V88.472H91.5305V89.504H84.0425ZM100.757 101.096C99.685 101.096 98.757 100.904 97.973 100.52C97.189 100.12 96.581 99.528 96.149 98.744C95.733 97.944 95.525 96.96 95.525 95.792V88.472H96.725V95.696C96.725 97.104 97.085 98.176 97.805 98.912C98.525 99.648 99.541 100.016 100.853 100.016C101.797 100.016 102.613 99.816 103.301 99.416C103.989 99.016 104.517 98.456 104.885 97.736C105.253 97 105.437 96.136 105.437 95.144V88.472H106.637V101H105.485V97.52L105.653 97.928C105.285 98.904 104.669 99.68 103.805 100.256C102.957 100.816 101.941 101.096 100.757 101.096ZM116.548 101.096C115.38 101.096 114.324 100.832 113.38 100.304C112.452 99.76 111.716 99.008 111.172 98.048C110.628 97.088 110.356 95.984 110.356 94.736C110.356 93.472 110.628 92.368 111.172 91.424C111.716 90.464 112.452 89.72 113.38 89.192C114.324 88.648 115.38 88.376 116.548 88.376C117.652 88.376 118.644 88.632 119.524 89.144C120.42 89.656 121.124 90.384 121.636 91.328C122.164 92.272 122.428 93.408 122.428 94.736C122.428 96.032 122.172 97.16 121.66 98.12C121.148 99.08 120.444 99.816 119.548 100.328C118.668 100.84 117.668 101.096 116.548 101.096ZM116.62 100.016C117.58 100.016 118.436 99.8 119.188 99.368C119.956 98.92 120.556 98.296 120.988 97.496C121.436 96.696 121.66 95.776 121.66 94.736C121.66 93.68 121.436 92.76 120.988 91.976C120.556 91.176 119.956 90.56 119.188 90.128C118.436 89.68 117.58 89.456 116.62 89.456C115.66 89.456 114.796 89.68 114.028 90.128C113.276 90.56 112.676 91.176 112.228 91.976C111.796 92.76 111.58 93.68 111.58 94.736C111.58 95.776 111.796 96.696 112.228 97.496C112.676 98.296 113.276 98.92 114.028 99.368C114.796 99.8 115.66 100.016 116.62 100.016ZM121.684 101V96.896L121.9 94.712L121.66 92.528V83.192H122.86V101H121.684ZM127.919 101V88.472H129.119V101H127.919ZM128.519 85.424C128.247 85.424 128.015 85.328 127.823 85.136C127.631 84.944 127.535 84.72 127.535 84.464C127.535 84.192 127.631 83.96 127.823 83.768C128.015 83.576 128.247 83.48 128.519 83.48C128.807 83.48 129.039 83.576 129.215 83.768C129.407 83.944 129.503 84.168 129.503 84.44C129.503 84.712 129.407 84.944 129.215 85.136C129.039 85.328 128.807 85.424 128.519 85.424ZM139.073 101.096C137.873 101.096 136.801 100.824 135.857 100.28C134.929 99.736 134.185 98.984 133.625 98.024C133.081 97.064 132.809 95.968 132.809 94.736C132.809 93.488 133.081 92.392 133.625 91.448C134.185 90.488 134.929 89.736 135.857 89.192C136.801 88.648 137.873 88.376 139.073 88.376C140.273 88.376 141.345 88.648 142.289 89.192C143.233 89.736 143.977 90.488 144.521 91.448C145.065 92.392 145.337 93.488 145.337 94.736C145.337 95.968 145.065 97.064 144.521 98.024C143.977 98.984 143.233 99.736 142.289 100.28C141.345 100.824 140.273 101.096 139.073 101.096ZM139.073 100.016C140.033 100.016 140.897 99.8 141.665 99.368C142.433 98.92 143.033 98.296 143.465 97.496C143.897 96.696 144.113 95.776 144.113 94.736C144.113 93.68 143.897 92.76 143.465 91.976C143.033 91.176 142.433 90.56 141.665 90.128C140.897 89.68 140.033 89.456 139.073 89.456C138.113 89.456 137.249 89.68 136.481 90.128C135.729 90.56 135.129 91.176 134.681 91.976C134.249 92.76 134.033 93.68 134.033 94.736C134.033 95.776 134.249 96.696 134.681 97.496C135.129 98.296 135.729 98.92 136.481 99.368C137.249 99.8 138.113 100.016 139.073 100.016Z" fill="#696969"/>
<defs>
<radialGradient id="paint0_radial_1_13" cx="0" cy="0" r="1" gradientUnits="userSpaceOnUse" gradientTransform="translate(74.5 27.5) rotate(90) scale(27.5)">
<stop offset="0.890625" stop-color="white"/>
<stop offset="1" stop-color="white" stop-opacity="0"/>
</radialGradient>
</defs>
</svg>
