<svg width="168" height="78" viewBox="0 0 168 78" fill="none" xmlns="http://www.w3.org/2000/svg">
<path d="M7.296 62V17.2H11.2L42.112 56.112H40.064V17.2H44.736V62H40.832L9.984 23.088H12.032V62H7.296ZM127.318 62L145.686 37.168V40.816L128.406 17.2H133.846L148.374 36.912L146.262 36.976L160.79 17.2H165.91L148.822 40.496V37.168L167.126 62H161.622L146.134 40.944H148.118L132.758 62H127.318Z" fill="url(#paint0_linear_1_13)"/>
<mask id="mask0_1_13" style="mask-type:alpha" maskUnits="userSpaceOnUse" x="61" y="0" width="55" height="55">
<circle cx="88.5" cy="27.5" r="27.5" fill="url(#paint1_radial_1_13)"/>
</mask>
<g mask="url(#mask0_1_13)">
<path d="M7.296 62V17.2H11.2L42.112 56.112H40.064V17.2H44.736V62H40.832L9.984 23.088H12.032V62H7.296ZM89.1825 62.384C85.8118 62.384 82.6758 61.8293 79.7745 60.72C76.9158 59.568 74.4198 57.968 72.2865 55.92C70.1958 53.8293 68.5532 51.4187 67.3585 48.688C66.2065 45.9147 65.6305 42.8853 65.6305 39.6C65.6305 36.3147 66.2065 33.3067 67.3585 30.576C68.5532 27.8027 70.1958 25.392 72.2865 23.344C74.4198 21.2533 76.9158 19.6533 79.7745 18.544C82.6332 17.392 85.7692 16.816 89.1825 16.816C92.5532 16.816 95.6678 17.392 98.5265 18.544C101.385 19.6533 103.86 21.232 105.951 23.28C108.084 25.328 109.727 27.7387 110.879 30.512C112.073 33.2853 112.671 36.3147 112.671 39.6C112.671 42.8853 112.073 45.9147 110.879 48.688C109.727 51.4613 108.084 53.872 105.951 55.92C103.86 57.968 101.385 59.568 98.5265 60.72C95.6678 61.8293 92.5532 62.384 89.1825 62.384ZM89.1825 58.16C91.8705 58.16 94.3452 57.712 96.6065 56.816C98.9105 55.8773 100.894 54.576 102.558 52.912C104.265 51.2053 105.588 49.2427 106.527 47.024C107.465 44.7627 107.935 42.288 107.935 39.6C107.935 36.912 107.465 34.4587 106.527 32.24C105.588 29.9787 104.265 28.016 102.558 26.352C100.894 24.6453 98.9105 23.344 96.6065 22.448C94.3452 21.5093 91.8705 21.04 89.1825 21.04C86.4945 21.04 83.9985 21.5093 81.6945 22.448C79.3905 23.344 77.3852 24.6453 75.6785 26.352C74.0145 28.016 72.6918 29.9787 71.7105 32.24C70.7718 34.4587 70.3025 36.912 70.3025 39.6C70.3025 42.2453 70.7718 44.6987 71.7105 46.96C72.6918 49.2213 74.0145 51.2053 75.6785 52.912C77.3852 54.576 79.3905 55.8773 81.6945 56.816C83.9985 57.712 86.4945 58.16 89.1825 58.16ZM125.693 62L144.061 37.168V40.816L126.781 17.2H132.221L146.749 36.912L144.637 36.976L159.165 17.2H164.285L147.197 40.496V37.168L165.501 62H159.997L144.509 40.944H146.493L131.133 62H125.693Z" fill="url(#paint2_linear_1_13)"/>
</g>
<defs>
<linearGradient id="paint0_linear_1_13" x1="84.5" y1="0" x2="84.5" y2="78" gradientUnits="userSpaceOnUse">
<stop offset="0.713542" stop-color="white"/>
<stop offset="0.932292" stop-color="white" stop-opacity="0"/>
</linearGradient>
<radialGradient id="paint1_radial_1_13" cx="0" cy="0" r="1" gradientUnits="userSpaceOnUse" gradientTransform="translate(88.5 27.5) rotate(90) scale(27.5)">
<stop offset="0.760417" stop-color="#333333"/>
<stop offset="1" stop-color="white" stop-opacity="0"/>
</radialGradient>
<linearGradient id="paint2_linear_1_13" x1="83.5" y1="0" x2="83.5" y2="78" gradientUnits="userSpaceOnUse">
<stop offset="0.713542" stop-color="white"/>
<stop offset="0.932292" stop-color="white" stop-opacity="0"/>
</linearGradient>
</defs>
</svg>
